HIERARCHY
ROOT Hips
{
	OFFSET 0.000000 0.000000 0.000000
	CHANNELS 6 Xposition Yposition Zposition Xrotation Yrotation Zrotation
	JOINT LeftUpLeg_virtual
	{
		OFFSET 0.000000 0.000000 0.000000
		CHANNELS 3 Xrotation Yrotation Zrotation
		JOINT LeftUpLeg
		{
			OFFSET 13.026900 -6.336304 -1.092800
			CHANNELS 3 Xrotation Yrotation Zrotation
			JOINT LeftLeg
			{
				OFFSET 0.524474 -46.096886 9.782700
				CHANNELS 3 Xrotation Yrotation Zrotation
				JOINT LeftFoot
				{
					OFFSET -0.524474 -53.427422 -12.948200
					CHANNELS 3 Xrotation Yrotation Zrotation
					JOINT LeftToeBase
					{
						OFFSET 0.192200 -14.009700 16.364100
						CHANNELS 3 Xrotation Yrotation Zrotation
						JOINT LeftToe_End
						{
							OFFSET -1.784700 -0.561700 9.474800
							CHANNELS 3 Xrotation Yrotation Zrotation
							End Site
							{
								OFFSET 0 0 0
							}
						}
					}
				}
			}
		}
	}
	JOINT RightUpLeg_virtual
	{
		OFFSET 0.000000 0.000000 0.000000
		CHANNELS 3 Xrotation Yrotation Zrotation
		JOINT RightUpLeg
		{
			OFFSET -12.883000 -6.336304 -1.092800
			CHANNELS 3 Xrotation Yrotation Zrotation
			JOINT RightLeg
			{
				OFFSET -0.524587 -46.096825 9.782800
				CHANNELS 3 Xrotation Yrotation Zrotation
				JOINT RightFoot
				{
					OFFSET 0.524587 -53.427383 -12.948300
					CHANNELS 3 Xrotation Yrotation Zrotation
					JOINT RightToeBase
					{
						OFFSET -0.192200 -14.009700 16.364100
						CHANNELS 3 Xrotation Yrotation Zrotation
						JOINT RightToe_End
						{
							OFFSET 1.784700 -0.561700 9.474800
							CHANNELS 3 Xrotation Yrotation Zrotation
							End Site
							{
								OFFSET 0 0 0
							}
						}
					}
				}
			}
		}
	}
	JOINT Spine_virtual
	{
		OFFSET 0.000000 0.000000 0.000000
		CHANNELS 3 Xrotation Yrotation Zrotation
		JOINT Spine
		{
			OFFSET 0.072000 7.257294 -0.789700
			CHANNELS 3 Xrotation Yrotation Zrotation
			JOINT Spine1
			{
				OFFSET 0.000000 12.508769 -0.658067
				CHANNELS 3 Xrotation Yrotation Zrotation
				JOINT Spine1_split
				{
					OFFSET 0.000000 12.508769 -0.658067
					CHANNELS 3 Xrotation Yrotation Zrotation
					JOINT Spine2
					{
						OFFSET 0.000000 12.508769 -0.658067
						CHANNELS 3 Xrotation Yrotation Zrotation
						JOINT Neck_virtual
						{
							OFFSET 0.000000 0.000000 0.000000
							CHANNELS 3 Xrotation Yrotation Zrotation
							JOINT Neck
							{
								OFFSET 0.000000 14.033295 7.520400
								CHANNELS 3 Xrotation Yrotation Zrotation
								JOINT Head
								{
									OFFSET 0.000000 8.198502 5.703100
									CHANNELS 3 Xrotation Yrotation Zrotation
									JOINT HeadTop_End
									{
										OFFSET 0.000000 17.760803 13.332701
										CHANNELS 3 Xrotation Yrotation Zrotation
										End Site
										{
											OFFSET 0 0 0
										}
									}
								}
							}
						}
						JOINT LeftShoulder_virtual
						{
							OFFSET 0.000000 0.000000 0.000000
							CHANNELS 3 Xrotation Yrotation Zrotation
							JOINT LeftShoulder
							{
								OFFSET 6.292450 5.785301 -0.669000
								CHANNELS 3 Xrotation Yrotation Zrotation
								JOINT LeftShoulder_split
								{
									OFFSET 6.292450 5.785301 -0.669000
									CHANNELS 3 Xrotation Yrotation Zrotation
									JOINT LeftArm
									{
										OFFSET 13.907140 -6.093903 1.965100
										CHANNELS 3 Xrotation Yrotation Zrotation
										JOINT LeftForeArm
										{
											OFFSET 34.140198 0.000000 0.000000
											CHANNELS 3 Xrotation Yrotation Zrotation
											JOINT LeftHand
											{
												OFFSET 40.960209 0.000000 0.000000
												CHANNELS 3 Xrotation Yrotation Zrotation
												End Site
												{
													OFFSET 0 0 0
												}
											}
										}
									}
								}
							}
						}
						JOINT RightShoulder_virtual
						{
							OFFSET 0.000000 0.000000 0.000000
							CHANNELS 3 Xrotation Yrotation Zrotation
							JOINT RightShoulder
							{
								OFFSET -6.292450 5.785301 -0.669000
								CHANNELS 3 Xrotation Yrotation Zrotation
								JOINT RightShoulder_split
								{
									OFFSET -6.292450 5.785301 -0.669000
									CHANNELS 3 Xrotation Yrotation Zrotation
									JOINT RightArm
									{
										OFFSET -13.907140 -6.093903 1.965100
										CHANNELS 3 Xrotation Yrotation Zrotation
										JOINT RightForeArm
										{
											OFFSET -34.140198 0.000000 0.000000
											CHANNELS 3 Xrotation Yrotation Zrotation
											JOINT RightHand
											{
												OFFSET -40.960209 0.000000 0.000000
												CHANNELS 3 Xrotation Yrotation Zrotation
												End Site
												{
													OFFSET 0 0 0
												}
											}
										}
									}
								}
							}
						}
					}
				}
			}
		}
	}
}
MOTION
Frames: 5
Frame Time: 0.03333333
-0.412507 141.042816 4.301712 0.000000 0.000000 0.000000 9.394556 -39.915830 5.355211 -80.522726 -15.306375 23.428498 62.093475 -0.449562 3.206363 16.380300 3.512985 -0.623930 -1.860995 1.384043 -1.842638 0.000000 0.000000 0.000000 9.463155 -43.851628 5.014719 -116.274572 -33.616579 -7.145396 104.143822 19.270713 -11.570330 42.339653 6.397982 33.264975 6.480088 3.366104 -2.264571 0.000000 0.000000 0.000000 8.326705 -41.020371 3.913964 30.258278 -5.539135 -7.470626 11.379557 1.398530 -3.496806 0.608056 1.077261 1.185950 0.000000 0.000000 0.000000 11.533130 1.212306 -2.310896 -6.541956 18.043422 -14.366716 -26.028995 11.516959 3.706052 0.000000 0.000000 0.000000 12.940306 1.498283 -2.882444 11.724706 -10.014160 0.271444 -0.269734 -3.489749 -4.129278 -54.391860 5.650948 0.731773 47.973005 -18.534972 31.323562 0.000000 0.000000 0.000000 13.964953 1.538543 -2.596962 17.345634 22.162273 -5.625955 0.191168 4.779337 2.508429 -34.425567 -14.113029 3.291550 -50.204896 50.145924 40.569971 0.000000 0.000000 0.000000 
-0.443201 141.048950 4.335678 0.000000 0.000000 0.000000 9.446619 -39.684864 5.319166 -80.639215 -15.177626 23.475125 62.088653 -0.385013 3.150510 16.468950 3.567151 -0.596459 -1.877435 1.384453 -1.867197 0.000000 0.000000 0.000000 9.537388 -43.795795 4.979484 -116.330402 -33.575957 -6.996860 104.219582 19.303520 -11.703299 42.415505 6.499639 33.368824 6.370978 3.368788 -2.253482 0.000000 0.000000 0.000000 8.373467 -40.935284 3.830071 30.185106 -5.612921 -7.480681 11.432091 1.341884 -3.501405 0.579760 1.155375 1.034967 0.000000 0.000000 0.000000 11.566217 1.190098 -2.321940 -6.762687 18.121064 -14.261402 -26.044911 11.492171 3.810267 0.000000 0.000000 0.000000 12.973334 1.466748 -2.836078 11.896763 -10.352383 1.112059 -0.428545 -3.374241 -3.749108 -55.778986 4.898819 1.165077 47.946644 -18.720188 31.401218 0.000000 0.000000 0.000000 14.014776 1.465805 -2.601570 17.437992 21.852627 -6.054676 0.380212 4.924660 2.245473 -34.977662 -14.219954 2.969494 -50.400406 50.537949 40.736816 0.000000 0.000000 0.000000 
-0.432266 141.019684 4.342564 0.000000 0.000000 0.000000 9.463267 -39.256461 5.154285 -80.896740 -15.103608 23.469930 62.160220 -0.374405 3.143170 16.689256 3.596158 -0.489292 -1.873986 1.381428 -1.852714 0.000000 0.000000 0.000000 9.605059 -43.538734 4.820026 -116.407324 -33.530608 -6.734176 104.313183 19.321628 -11.881779 42.620302 6.637133 33.569540 6.171403 3.351142 -2.154897 0.000000 0.000000 0.000000 8.502029 -40.726116 3.714177 30.089026 -5.669729 -7.538864 11.464035 1.305200 -3.539493 0.466309 1.219333 0.999498 0.000000 0.000000 0.000000 11.642173 1.206543 -2.362412 -6.952921 18.105080 -14.066632 -26.200792 11.406205 3.982430 0.000000 0.000000 0.000000 13.013396 1.487789 -2.805245 12.175730 -10.838222 2.537685 -0.303811 -2.987215 -3.620876 -57.348570 3.416619 1.903276 47.917353 -18.931662 31.410759 0.000000 0.000000 0.000000 14.059722 1.422733 -2.645452 17.718245 21.424323 -6.978127 0.550707 4.951142 2.281519 -35.916837 -14.496923 2.174691 -51.518201 51.398803 41.951271 0.000000 0.000000 0.000000 
-0.397560 140.970200 4.367390 0.000000 0.000000 0.000000 9.446861 -38.726090 4.886232 -81.261281 -15.100035 23.412584 62.289987 -0.422772 3.185983 17.006753 3.591798 -0.325807 -1.876945 1.376081 -1.801095 0.000000 0.000000 0.000000 9.638805 -43.172512 4.559644 -116.507618 -33.496334 -6.409273 104.415349 19.288203 -12.072586 42.834729 6.706195 33.805833 6.043338 3.316603 -1.987428 0.000000 0.000000 0.000000 8.702894 -40.452929 3.578602 29.978810 -5.701464 -7.630257 11.487525 1.285981 -3.592176 0.348299 1.205780 1.024535 0.000000 0.000000 0.000000 11.770768 1.255059 -2.422504 -7.087345 18.019496 -13.826341 -26.442758 11.272534 4.177717 0.000000 0.000000 0.000000 13.064836 1.542915 -2.796487 12.543959 -11.440086 4.318184 -0.046908 -2.592437 -3.792202 -58.768484 1.470639 2.564466 47.807062 -18.932323 31.247432 0.000000 0.000000 0.000000 14.097569 1.414133 -2.715260 18.140436 20.974811 -8.241728 0.683163 4.878669 2.470789 -37.014103 -14.803159 1.138163 -53.221247 52.459944 43.853110 0.000000 0.000000 0.000000 
-0.351481 140.918808 4.406090 0.000000 0.000000 0.000000 9.411525 -38.156285 4.547072 -81.686187 -15.165597 23.316423 62.453884 -0.509157 3.269609 17.372552 3.551517 -0.119079 -1.928449 1.370812 -1.725096 0.000000 0.000000 0.000000 9.626284 -42.771495 4.243733 -116.664576 -33.462032 -6.082561 104.568919 19.180337 -12.238055 42.979990 6.660960 34.021056 6.122263 3.275101 -1.785579 0.000000 0.000000 0.000000 8.943650 -40.158278 3.425663 29.873728 -5.704867 -7.732168 11.520628 1.274536 -3.645277 0.248826 1.101516 1.068626 0.000000 0.000000 0.000000 11.932293 1.306000 -2.482564 -7.148377 17.885882 -13.598379 -26.691963 11.140001 4.353893 0.000000 0.000000 0.000000 13.142848 1.600952 -2.806245 12.980728 -12.104442 6.237230 0.207162 -2.382810 -4.097317 -59.904516 -0.819511 2.840557 47.661729 -18.662647 30.980635 0.000000 0.000000 0.000000 14.132945 1.427482 -2.784230 18.642872 20.642015 -9.638304 0.773059 4.792205 2.606357 -38.132212 -14.905819 0.101675 -55.059084 53.452941 45.948646 0.000000 0.000000 0.000000 
